HIERARCHY
ROOT Hips
{
	OFFSET	0.00	0.00	0.00
	CHANNELS 6 Xposition Yposition Zposition Zrotation Xrotation Yrotation
	JOINT LeftUpLeg
	{
		OFFSET	 0.126116	-0.014019	-0.065224
		CHANNELS 3 Zrotation Xrotation Yrotation
		JOINT LeftLeg
		{
			OFFSET	 0.000000	 0.000000	 0.569914
			CHANNELS 3 Zrotation Xrotation Yrotation
			JOINT LeftFoot
			{
				OFFSET	 0.000000	 0.000000	 0.544423
				CHANNELS 3 Zrotation Xrotation Yrotation
				JOINT LeftToeBase
				{
					OFFSET	 0.000000	 0.000000	 0.207117
					CHANNELS 3 Zrotation Xrotation Yrotation
					End Site
					{
						OFFSET	 0.000000	 0.000000	 0.207117
					}
				}
			}
		}
	}
	JOINT RightUpLeg
	{
		OFFSET	-0.124023	-0.008373	-0.065224
		CHANNELS 3 Zrotation Xrotation Yrotation
		JOINT RightLeg
		{
			OFFSET	 0.000000	 0.000000	 0.570047
			CHANNELS 3 Zrotation Xrotation Yrotation
			JOINT RightFoot
			{
				OFFSET	 0.000000	 0.000000	 0.544354
				CHANNELS 3 Zrotation Xrotation Yrotation
				JOINT RightToeBase
				{
					OFFSET	 0.000000	 0.000000	 0.207540
					CHANNELS 3 Zrotation Xrotation Yrotation
					End Site
					{
						OFFSET	 0.000000	 0.000000	 0.207540
					}
				}
			}
		}
	}
	JOINT Spine
	{
		OFFSET	 0.000184	-0.007763	 0.117403
		CHANNELS 3 Zrotation Xrotation Yrotation
		JOINT Spine1
		{
			OFFSET	 0.000000	 0.000000	 0.137269
			CHANNELS 3 Zrotation Xrotation Yrotation
			JOINT Spine2
			{
				OFFSET	 0.000000	 0.000000	 0.156879
				CHANNELS 3 Zrotation Xrotation Yrotation
				JOINT LeftShoulder
				{
					OFFSET	 0.080501	-0.002496	 0.160144
					CHANNELS 3 Zrotation Xrotation Yrotation
					JOINT LeftArm
					{
						OFFSET	 0.000000	 0.000000	 0.164363
						CHANNELS 3 Zrotation Xrotation Yrotation
						JOINT LeftForeArm
						{
							OFFSET	 0.000000	 0.000000	 0.364576
							CHANNELS 3 Zrotation Xrotation Yrotation
							JOINT LeftHand
							{
								OFFSET	 0.000000	 0.000000	 0.360812
								CHANNELS 3 Zrotation Xrotation Yrotation
								JOINT LeftHandIndex1
								{
									OFFSET	 0.000000	 0.000000	 0.086006
									CHANNELS 3 Zrotation Xrotation Yrotation
									JOINT LeftHandIndex2
									{
										OFFSET	 0.000000	 0.000000	 0.047236
										CHANNELS 3 Zrotation Xrotation Yrotation
										JOINT LeftHandIndex3
										{
											OFFSET	-0.004284	-0.000551	 0.038166
											CHANNELS 3 Zrotation Xrotation Yrotation
											End Site
											{
												OFFSET	-0.004284	-0.000551	 0.038166
											}
										}
									}
								}
							}
						}
					}
				}
				JOINT Neck
				{
					OFFSET	 0.000000	 0.000000	 0.176489
					CHANNELS 3 Zrotation Xrotation Yrotation
					JOINT Head
					{
						OFFSET	 0.000000	-0.001747	 0.077940
						CHANNELS 3 Zrotation Xrotation Yrotation
						End Site
						{
							OFFSET	 0.000000	-0.001747	 0.077940
						}
					}
				}
				JOINT RightShoulder
				{
					OFFSET	-0.080363	 0.000306	 0.159706
					CHANNELS 3 Zrotation Xrotation Yrotation
					JOINT RightArm
					{
						OFFSET	 0.000000	 0.000000	 0.164196
						CHANNELS 3 Zrotation Xrotation Yrotation
						JOINT RightForeArm
						{
							OFFSET	 0.000000	 0.000000	 0.365611
							CHANNELS 3 Zrotation Xrotation Yrotation
							JOINT RightHand
							{
								OFFSET	 0.000000	 0.000000	 0.360648
								CHANNELS 3 Zrotation Xrotation Yrotation
								JOINT RightHandIndex1
								{
									OFFSET	 0.000000	 0.000000	 0.069977
									CHANNELS 3 Zrotation Xrotation Yrotation
									JOINT RightHandIndex2
									{
										OFFSET	 0.000000	 0.000000	 0.052305
										CHANNELS 3 Zrotation Xrotation Yrotation
										JOINT RightHandIndex3
										{
											OFFSET	 0.009002	-0.000782	 0.042196
											CHANNELS 3 Zrotation Xrotation Yrotation
											End Site
											{
												OFFSET	 0.009002	-0.000782	 0.042196
											}
										}
									}
								}
							}
						}
					}
				}
			}
		}
	}
}
MOTION
Frames:    13
Frame Time: 0.03333334
-0.000314	 0.043804	 1.278761	-0.060733	 2.954934	 0.443419	-11.727890	-5.504537	 179.661800	 2.168675	-11.839490	 0.530754	 0.188455	 70.473320	-0.292130	-2.385833	 28.452750	 0.000004	 19.233830	-5.011955	-179.581300	-0.794027	-10.252670	 0.776105	 5.051193	 69.409710	 1.273472	 2.384659	 28.388700	-0.000001	-6.201498	 6.654344	 1.473290	-3.129943	-4.797678	-0.445519	 9.620543	 7.555898	-0.728192	-91.047910	 68.971340	-177.553500	-7.018226	 1.218658	 1.597078	 22.463890	-9.715236	-38.557700	-8.898006	-30.465810	-4.909720	-2.027600	 6.559038	 9.033609	-5.188889	 0.308190	 3.541030	-5.234859	 0.342567	 0.430617	 4.628388	 19.919930	-7.366258	 4.876167	-15.327040	 2.236017	 88.848660	 67.560610	 177.038200	 8.429020	 5.632627	 9.036156	-27.353350	-6.728973	 18.118910	 6.467309	-30.103380	 6.552920	 1.803333	 3.979147	-15.098590	 4.898592	 3.004813	-9.310344	 5.224449	 0.395017	 2.014677
-0.000511	 0.044832	 1.279611	-0.035231	 3.306899	 0.453962	-11.785890	-5.719338	 179.547500	 2.144167	-11.414870	 0.507120	-0.088402	 70.153520	 0.032216	-2.385833	 28.452750	 0.000004	 19.205550	-5.126497	-179.433300	-0.797207	-9.642323	 0.729824	 5.151510	 68.971550	 1.149261	 2.384659	 28.388700	-0.000001	-6.153021	 6.835591	 1.523087	-3.147307	-5.599783	-0.563729	 9.587308	 8.369516	-0.794699	-90.988450	 68.565420	-177.430400	-6.777880	 1.094076	 1.293835	 22.228080	-9.649636	-38.943470	-8.407749	-31.448560	-5.176533	-2.027600	 6.559038	 9.033609	-5.188889	 0.308190	 3.541030	-5.234859	 0.342567	 0.430617	 4.697054	 21.077640	-7.717863	 4.998860	-16.279960	 2.289257	 88.750330	 66.879300	 176.863200	 8.039180	 5.124556	 9.436565	-27.307230	-6.866380	 18.506210	 5.727586	-30.809350	 6.386117	 1.803333	 3.979147	-15.098590	 4.898592	 3.004813	-9.310344	 5.224449	 0.395017	 2.014677
-0.001171	 0.048456	 1.281725	 0.060282	 4.440681	 0.500176	-12.004960	-6.619977	 179.148500	 2.130309	-10.444320	 0.465554	-1.033567	 69.382130	 1.051708	-2.385833	 28.452750	 0.000004	 19.086530	-5.642731	-178.980500	-0.814641	-7.935888	 0.599173	 5.528468	 67.677350	 0.701787	 2.384659	 28.388700	-0.000001	-5.871028	 7.353224	 1.642878	-3.167192	-7.942904	-0.906856	 9.302159	 10.670850	-0.948673	-90.840660	 67.545370	-177.148000	-6.028107	 1.351696	 0.556601	 21.491010	-9.445928	-40.225400	-7.372785	-34.619350	-6.189286	-2.027600	 6.559038	 9.033609	-5.188889	 0.308190	 3.541030	-5.234859	 0.342567	 0.430617	 4.756861	 24.197260	-8.616121	 5.317685	-18.945800	 2.498949	 88.465130	 64.908040	 176.401900	 6.972575	 4.141744	 10.458230	-27.034490	-7.262918	 19.765210	 3.717721	-33.131790	 6.037244	 1.803333	 3.979147	-15.098590	 4.898592	 3.004813	-9.310344	 5.224449	 0.395017	 2.014677
-0.001818	 0.053093	 1.283846	 0.173688	 5.826768	 0.591921	-12.219080	-7.740496	 178.622800	 2.118083	-9.288290	 0.409358	-2.109551	 68.498460	 2.258373	-2.385832	 28.452790	-0.000001	 18.821600	-5.964092	-178.435400	-1.175981	-5.163765	 0.357909	 6.173017	 65.870900	 0.321486	 2.384659	 28.388700	-0.000001	-5.437930	 7.786385	 1.659715	-3.193006	-10.686890	-1.220445	 8.756630	 12.956430	-1.124080	-90.832570	 66.206170	-177.336800	-4.712244	 1.712388	 0.456073	 19.978940	-8.525797	-41.634310	-7.830210	-37.718420	-7.808827	-2.027600	 6.559038	 9.033609	-5.188889	 0.308190	 3.541030	-5.234859	 0.342567	 0.430617	 4.442412	 25.844650	-8.798749	 5.283056	-20.563620	 2.442341	 88.396450	 62.865520	 176.540900	 5.394178	 3.416853	 10.765110	-26.157520	-7.390599	 21.022190	 2.265725	-35.387860	 6.362490	 1.803333	 3.979147	-15.098590	 4.898592	 3.004813	-9.310344	 5.224449	 0.395017	 2.014677
-0.002245	 0.059183	 1.285138	 0.385330	 7.514345	 0.656928	-12.574120	-9.621414	 178.009700	 2.049267	-8.854065	 0.379762	-3.246234	 67.744700	 3.594159	-2.385832	 28.452790	-0.000001	 18.454490	-6.828627	-177.771200	-1.468862	-2.755599	 0.177042	 7.037588	 64.178330	-0.364898	 2.384659	 28.388700	-0.000001	-4.926913	 8.015767	 1.592510	-3.208071	-13.789370	-1.500151	 8.011100	 15.224420	-1.186778	-91.143950	 65.216550	-178.302900	-2.913749	 3.028174	 1.439529	 18.663930	-7.705657	-43.101650	-8.852980	-40.687310	-9.726707	-2.027600	 6.559038	 9.033609	-5.188889	 0.308190	 3.541030	-5.234859	 0.342567	 0.430617	 4.013981	 26.745090	-8.795525	 5.005653	-21.703570	 2.348372	 88.662800	 61.449130	 177.351000	 3.355182	 4.024625	 10.031800	-25.328960	-7.498961	 22.268810	 1.018753	-37.878220	 6.856232	 1.803333	 3.979147	-15.098590	 4.898592	 3.004813	-9.310344	 5.224449	 0.395017	 2.014677
-0.002478	 0.067004	 1.285434	 0.673670	 9.555672	 0.667374	-13.042130	-12.471640	 177.308100	 1.975735	-9.422192	 0.391858	-4.512517	 67.280090	 5.113666	-2.385833	 28.452760	 0.000004	 18.098920	-9.610622	-177.053300	-1.665913	-3.391828	 0.206167	 8.649866	 63.931290	-1.980942	 2.384659	 28.388700	-0.000001	-4.331667	 7.929522	 1.468816	-3.127504	-16.834390	-1.675914	 7.047431	 17.219000	-1.054741	-91.808940	 64.809300	 179.913900	-0.784237	 5.445092	 3.450395	 17.836800	-7.296773	-44.648790	-10.066330	-43.587010	-11.721890	-2.027600	 6.559038	 9.033609	-5.188889	 0.308190	 3.541030	-5.234859	 0.342567	 0.430617	 3.534664	 26.707210	-8.777894	 4.471962	-22.283570	 2.201781	 89.286870	 60.736850	 178.856200	 0.923029	 6.029123	 8.388687	-24.523080	-7.578163	 23.501440	 0.107334	-40.724160	 7.448689	 1.803333	 3.979147	-15.098590	 4.898592	 3.004813	-9.310344	 5.224449	 0.395017	 2.014677
-0.002694	 0.077030	 1.284955	 0.897507	 11.958990	 0.594783	-13.472230	-16.123710	 176.542700	 1.994404	-10.564630	 0.442286	-6.157957	 67.098970	 6.979755	-2.385832	 28.452790	-0.000001	 17.927630	-13.727200	-176.154900	-1.878172	-5.736753	 0.327030	 10.917460	 64.457110	-4.323637	 2.384659	 28.388700	-0.000001	-3.578269	 7.718208	 1.394297	-2.836747	-19.147500	-1.703480	 5.877107	 18.630670	-0.607150	-92.655050	 65.133910	 177.650200	 1.392029	 8.973995	 5.902128	 17.731360	-7.767575	-46.848240	-10.714350	-46.654420	-13.190560	-2.027600	 6.559038	 9.033609	-5.188889	 0.308190	 3.541030	-5.234859	 0.342567	 0.430617	 3.084934	 25.178730	-9.049193	 3.646106	-22.000740	 1.884254	 90.131230	 60.250340	-179.206500	-1.478859	 8.857476	 6.245448	-23.195450	-7.653162	 25.584790	 0.053557	-44.082500	 8.168003	 1.803333	 3.979147	-15.098590	 4.898592	 3.004813	-9.310344	 5.224449	 0.395017	 2.014677
-0.003815	 0.091105	 1.284775	 1.967773	 15.760300	 0.697941	-14.977400	-21.135900	 174.809900	 2.631596	-11.072750	 0.585942	-8.860881	 66.071000	 9.417702	-2.385833	 28.452760	 0.000004	 16.740370	-17.872150	-175.141800	-1.513262	-4.623079	 0.293216	 11.454980	 62.421630	-5.482680	 2.384659	 28.388700	-0.000001	-3.118479	 6.817704	 1.103070	-2.901568	-20.670520	-1.789488	 4.451571	 18.689690	-0.383390	-93.387900	 65.282580	 175.661100	 4.730882	 13.063170	 7.004129	 17.591480	-8.120029	-48.668760	-11.231170	-49.048830	-14.431520	-2.027600	 6.559038	 9.033609	-5.188889	 0.308190	 3.541030	-5.234859	 0.342567	 0.430617	 2.743093	 24.530610	-8.582488	 2.664309	-22.308650	 1.527052	 90.975110	 60.517380	-177.265000	-4.259733	 12.720860	 5.238102	-22.115880	-7.515282	 26.886320	 0.459280	-46.869230	 9.288115	 1.803333	 3.979147	-15.098590	 4.898592	 3.004813	-9.310344	 5.224449	 0.395017	 2.014677
-0.005388	 0.106200	 1.283923	 3.215780	 19.462080	 0.586589	-16.736000	-25.822620	 173.020800	 3.250844	-11.072110	 0.705228	-11.056230	 63.944750	 11.439520	-2.385833	 28.452760	 0.000004	 15.493560	-22.805080	-174.225800	-1.735310	-5.335406	 0.317549	 12.652430	 60.780410	-6.806063	 2.384659	 28.388700	-0.000001	-2.651399	 6.451322	 0.856413	-2.927660	-21.123820	-1.464635	 2.966188	 18.296680	-0.419670	-93.991200	 65.718280	 173.909300	 8.235361	 17.622520	 5.565347	 17.639560	-8.360319	-49.296520	-12.139170	-51.613790	-15.882550	-2.027600	 6.559038	 9.033609	-5.188889	 0.308190	 3.541030	-5.234859	 0.342567	 0.430617	 2.415504	 24.019880	-7.624662	 1.439040	-22.771140	 0.841620	 91.751790	 61.100860	-175.396100	-6.908552	 17.065510	 6.378535	-21.597320	-7.271573	 27.008510	 1.138758	-49.469620	 10.502110	 1.803333	 3.979147	-15.098590	 4.898592	 3.004813	-9.310344	 5.224449	 0.395017	 2.014677
-0.007517	 0.119108	 1.281463	 4.140794	 22.029600	 0.380517	-18.166580	-29.988730	 171.609800	 3.620145	-12.984250	 0.908403	-13.064510	 64.616940	 13.379760	-2.385833	 28.452750	 0.000004	 14.813630	-28.192920	-173.668800	-2.012693	-9.982136	 0.543703	 15.304640	 62.727280	-9.556520	 2.384659	 28.388700	-0.000001	-2.037858	 7.398916	 0.682139	-2.711072	-20.105470	-0.788704	 1.642909	 17.774700	-0.609818	-94.400270	 66.701190	 172.398900	 11.182300	 21.294640	 1.794025	 17.814140	-8.610373	-49.432750	-13.255620	-54.160040	-17.409000	-2.027600	 6.559038	 9.033609	-5.188889	 0.308190	 3.541030	-5.234859	 0.342567	 0.430617	 2.023260	 23.440620	-6.670229	 0.188262	-23.220690	 0.094903	 92.364610	 61.823160	-173.808900	-9.082520	 20.867870	 9.516941	-21.250770	-7.095878	 27.050700	 2.636666	-51.965890	 12.041670	 1.803333	 3.979147	-15.098590	 4.898592	 3.004813	-9.310344	 5.224449	 0.395017	 2.014677
-0.009935	 0.129635	 1.277926	 4.359071	 23.243280	 0.252660	-18.778780	-33.321090	 170.805100	 3.676754	-16.692770	 1.177598	-14.699760	 66.113140	 15.268680	-2.385833	 28.452750	 0.000004	 14.890140	-32.132480	-173.309900	-2.050832	-15.160570	 0.810272	 17.799450	 64.757600	-12.362300	 2.384659	 28.388700	-0.000001	-1.149141	 9.677701	 0.495278	-2.042201	-16.466420	 0.188953	 0.511796	 16.772040	-0.792113	-94.574290	 68.399700	 170.993900	 13.455580	 23.646870	-3.734330	 17.848070	-9.016079	-50.588840	-14.553110	-56.668100	-18.976340	-2.027600	 6.559038	 9.033609	-5.188889	 0.308190	 3.541030	-5.234859	 0.342567	 0.430617	 1.515216	 22.599190	-6.070317	-0.979379	-23.543670	-0.510788	 92.808110	 62.707970	-172.500200	-10.715600	 23.883950	 14.548770	-20.682080	-7.117125	 28.162790	 5.417538	-54.505960	 14.199620	 1.803333	 3.979147	-15.098590	 4.898592	 3.004813	-9.310344	 5.224449	 0.395017	 2.014677
-0.011587	 0.141553	 1.273950	 3.732246	 24.550330	 0.217779	-18.416390	-36.572420	 170.296100	 3.740294	-19.558940	 1.393782	-15.934200	 66.858700	 16.815160	-2.385833	 28.452750	 0.000004	 15.967550	-35.567700	-172.391100	-2.463103	-18.482900	 0.851179	 20.471130	 65.727370	-14.940980	 2.384659	 28.388700	-0.000001	-0.254238	 11.073140	 0.270014	-1.119887	-12.576640	 0.929435	-0.328528	 15.438890	-0.591323	-94.495220	 70.234480	 169.899500	 14.749880	 24.809680	-8.918275	 17.604690	-8.964117	-51.383510	-16.498420	-58.928600	-20.580030	-2.027600	 6.559038	 9.033609	-5.188889	 0.308190	 3.541030	-5.234859	 0.342567	 0.430617	 1.119693	 21.581580	-5.979183	-1.865488	-23.546650	-0.793206	 93.056760	 64.159320	-171.373900	-12.085290	 26.307860	 20.129720	-20.117170	-6.773465	 28.081090	 8.729962	-56.570710	 16.488840	 1.803333	 3.979147	-15.098590	 4.898592	 3.004813	-9.310344	 5.224449	 0.395017	 2.014677
-0.013929	 0.162509	 1.268110	 3.611881	 26.211100	-0.340090	-18.107290	-40.635960	 169.959500	 4.089644	-21.167260	 1.630067	-16.630670	 65.756170	 17.849630	-2.385833	 28.452750	 0.000004	 17.268780	-40.349530	-170.456400	-3.557370	-22.001180	 0.595377	 23.558300	 65.517520	-17.363410	 2.384659	 28.388700	-0.000001	 0.880088	 12.043060	-0.362430	-0.078862	-7.341452	 2.170318	-1.638762	 13.760220	-0.812440	-94.916880	 69.994530	 168.583300	 13.645990	 23.009630	-12.522830	 17.110500	-8.959539	-53.388290	-18.234860	-60.506240	-21.987770	-2.027600	 6.559038	 9.033609	-5.188889	 0.308190	 3.541030	-5.234859	 0.342567	 0.430617	 0.310469	 22.305800	-4.556178	-3.307950	-25.225670	-2.297611	 93.446900	 65.020850	-169.951500	-12.523750	 26.371050	 24.800090	-19.120440	-6.737419	 30.038430	 11.909560	-57.640340	 18.785520	 1.803333	 3.979147	-15.098590	 4.898592	 3.004813	-9.310344	 5.224449	 0.395017	 2.014677
